<svg width="188" height="40" viewBox="0 0 188 40" fill="none" xmlns="http://www.w3.org/2000/svg">
<path d="M32.8201 13.3565C33.267 13.7222 33.6827 14.0621 34.1002 14.4019C34.1865 14.4727 34.2745 14.5417 34.3625 14.6107C34.5022 14.7211 34.5401 14.8833 34.4435 15.0351C34.3176 15.2352 34.1813 15.4301 34.045 15.6216C33.8345 15.9184 33.6017 16.1996 33.4136 16.5084C33.2532 16.7706 33.2549 17.076 33.3308 17.3675C33.4981 18.0145 33.5568 18.6631 33.455 19.329C33.3636 19.9363 33.3084 20.5487 33.2376 21.1595C33.179 21.6546 33.1289 22.1497 33.0582 22.6431C33.0099 22.983 32.7442 23.1641 32.4993 23.3677C32.1387 23.6661 31.7799 23.9732 31.459 24.3114C31.2054 24.5788 31.0674 24.9221 30.9914 25.2913C30.8621 25.9227 30.8345 26.5627 30.7913 27.2028C30.7758 27.4288 30.7706 27.6548 30.7655 27.8825C30.7603 28.1913 30.8741 28.4673 31.0191 28.733C31.0863 28.8555 31.1536 28.9797 31.233 29.0953C31.3537 29.2747 31.3537 29.4352 31.233 29.6249C30.8741 30.1839 30.5257 30.748 30.1841 31.3173C29.8942 31.8021 29.6182 32.2972 29.337 32.7889C29.2594 32.9252 29.1697 33.0408 29.0196 33.1132C28.8729 33.1857 28.7418 33.2892 28.6107 33.3893C28.5762 33.4151 28.552 33.4755 28.5503 33.5204C28.5296 34.0828 28.5106 34.6452 28.4951 35.2076C28.4761 35.877 28.4779 36.5463 28.4347 37.214C28.414 37.5228 28.3329 37.8333 28.2312 38.1266C27.9758 38.8684 27.5031 39.4498 26.8407 39.869C26.7216 39.945 26.5595 39.9743 26.4145 39.9846C26.1351 40.0019 25.8521 40.0088 25.5727 39.9829C25.4019 39.9674 25.2207 39.9087 25.0741 39.8207C24.4892 39.4636 24.089 38.934 23.8216 38.3198C23.6266 37.8696 23.5266 37.3865 23.5197 36.8828C23.5042 35.7717 23.4645 34.6624 23.4386 33.5532C23.4369 33.46 23.4075 33.4013 23.3282 33.3548C23.1747 33.2633 23.0194 33.1719 22.8779 33.0632C22.7899 32.9942 22.7123 32.901 22.6536 32.8044C22.1758 32.0022 21.7048 31.1948 21.2286 30.3926C21.0751 30.1339 20.9216 29.8768 20.7508 29.6284C20.6231 29.4438 20.63 29.2816 20.7473 29.0987C20.856 28.9279 20.9457 28.7451 21.0441 28.5674C21.1941 28.2948 21.2304 27.9998 21.2131 27.6979C21.189 27.2407 21.1717 26.7818 21.1269 26.3247C21.0855 25.9003 21.0717 25.4707 20.9302 25.0584C20.7904 24.6512 20.5748 24.2976 20.2487 24.0181C19.9072 23.7248 19.55 23.4505 19.2085 23.1589C18.9807 22.964 18.9186 22.6914 18.8876 22.4068C18.8186 21.7771 18.734 21.1491 18.6685 20.5194C18.596 19.838 18.5046 19.1548 18.4839 18.4716C18.4735 18.1093 18.5908 17.7419 18.6547 17.3779C18.7151 17.038 18.722 16.6999 18.5236 16.4014C18.3717 16.172 18.1837 15.9667 18.0215 15.7441C17.8645 15.5302 17.692 15.3215 17.5747 15.0851C17.4263 14.7884 17.4816 14.7211 17.6817 14.5658C18.144 14.2035 18.5943 13.8292 19.0497 13.4583C19.0791 13.4341 19.1067 13.4082 19.1688 13.353C18.9583 13.2305 18.7789 13.1132 18.5857 13.0183C18.3459 12.8993 18.0923 12.8579 17.818 12.8579C14.3107 12.8717 10.8051 12.8751 7.2978 12.8838C7.07525 12.8838 6.8527 12.8907 6.63015 12.9027C6.47489 12.9114 6.3524 12.8579 6.22819 12.7682C5.57434 12.2989 4.92222 11.8262 4.25975 11.3708C3.2971 10.7083 2.32582 10.0579 1.36145 9.40063C1.23378 9.31437 1.10785 9.21949 0.999159 9.11253C0.816289 8.93138 0.824916 8.67951 0.792137 8.44833C0.704153 7.82727 0.624795 7.20275 0.545436 6.57996C0.448826 5.81743 0.353941 5.0549 0.262506 4.29237C0.20385 3.79725 0.146919 3.30385 0.0968889 2.80872C0.0761867 2.60687 0.0727363 2.40158 0.0658356 2.19973C0.0434082 1.55106 0.024431 0.90067 0.000278444 0.252002C-0.00317192 0.13814 0.0244312 0.0467056 0.140018 0.0104768C0.264232 -0.0292024 0.321162 0.0656825 0.359116 0.153667C0.524734 0.534932 0.678275 0.921372 0.842167 1.30264C1.6047 3.08992 2.37585 4.87548 3.12976 6.66622C3.45754 7.44428 4.19592 7.83417 4.9688 7.78759C5.91248 7.72893 6.85615 7.68235 7.80155 7.62715C9.00228 7.55642 10.203 7.48051 11.402 7.40805C13.1151 7.30454 14.8282 7.1993 16.5431 7.09579C17.1037 7.06129 17.6661 7.03196 18.2268 6.99401C18.439 6.98021 18.646 6.9319 18.8565 7.01298C19.2085 7.14927 19.4603 7.40115 19.7088 7.672C20.0452 8.03774 20.4247 8.33792 20.9578 8.3362C22.6347 8.33102 24.3133 8.31722 25.9901 8.32067C27.4393 8.3224 28.8902 8.34655 30.3393 8.35172C30.6533 8.35172 30.9742 8.35862 31.2778 8.29824C31.4952 8.25511 31.7091 8.1309 31.8903 7.99634C32.1163 7.82554 32.294 7.59264 32.5148 7.41495C32.708 7.25796 32.9254 7.12685 33.1445 7.00781C33.2307 6.96123 33.3515 6.95778 33.455 6.96468C34.6885 7.04059 35.922 7.1234 37.1555 7.20103C38.8583 7.30626 40.5628 7.40978 42.2672 7.51156C43.4628 7.58402 44.6583 7.6582 45.8539 7.72548C46.3128 7.75136 46.7734 7.78069 47.234 7.77896C47.7602 7.77724 48.195 7.56677 48.5331 7.151C48.7522 6.88187 48.8764 6.56789 49.011 6.26081C49.5544 5.01695 50.0927 3.77137 50.6257 2.52234C50.9553 1.75291 51.2727 0.978303 51.5953 0.205422C51.6039 0.182995 51.6125 0.160567 51.6246 0.13814C51.6678 0.0587818 51.723 -0.0361031 51.8213 0.0139271C51.8903 0.0484307 51.9628 0.14159 51.9714 0.215773C51.9921 0.372765 51.9783 0.534932 51.9679 0.695373C51.9334 1.20775 51.8938 1.72013 51.8541 2.23078C51.7971 2.94501 51.7506 3.66096 51.6781 4.37346C51.5867 5.27918 51.4642 6.17972 51.371 7.08544C51.3227 7.55642 51.2882 8.03084 51.2796 8.50526C51.2744 8.79509 51.1744 9.01247 50.9415 9.17118C49.877 9.89921 48.8091 10.6221 47.7464 11.3535C47.1323 11.7779 46.5112 12.1954 45.9229 12.6543C45.6296 12.8838 45.3312 12.9321 44.9896 12.8993C44.9171 12.8924 44.8447 12.8872 44.7722 12.8872C41.1631 12.8803 37.5558 12.8734 33.9467 12.8665C33.6551 12.8665 33.4102 13.008 33.1635 13.1391C33.0496 13.1995 32.9478 13.2788 32.815 13.3668L32.8201 13.3565ZM25.8366 23.5609V13.2909C25.771 13.4272 25.7245 13.5669 25.6796 13.7084C24.8239 16.4049 23.9682 19.1013 23.1108 21.7978C23.0746 21.9134 23.1022 21.9668 23.204 22.0255C23.8061 22.3705 24.4013 22.7225 24.9999 23.0727C25.2673 23.2297 25.5347 23.3849 25.8366 23.5609ZM26.1471 23.5488C26.1989 23.5247 26.223 23.5161 26.242 23.504C27.0994 23.002 27.9569 22.4982 28.816 22.0031C28.9212 21.9427 28.8936 21.8771 28.8695 21.7978C28.6003 20.9645 28.3295 20.133 28.0638 19.298C27.4376 17.3209 26.8165 15.3404 26.192 13.3634C26.1834 13.3358 26.1678 13.3116 26.1454 13.2702V23.5488H26.1471ZM31.754 13.805C30.2479 14.3916 28.7867 14.9609 27.3065 15.5371C27.9137 17.3934 28.5141 19.2324 29.1162 21.0732H29.1576C30.0184 18.6631 30.8793 16.2565 31.754 13.805ZM20.2781 13.824C20.2677 13.8326 20.2574 13.843 20.247 13.8516C21.1079 16.2582 21.9687 18.6666 22.8279 21.0732C22.8417 21.0732 22.8555 21.0732 22.8693 21.0715C23.4714 19.2273 24.0735 17.3848 24.6773 15.5371C23.1902 14.9574 21.7341 14.3899 20.2763 13.8223L20.2781 13.824ZM43.0194 10.334C41.2718 9.49379 39.5484 8.66398 37.8266 7.8359C37.5972 8.17058 37.6438 8.67778 38.0681 8.89171C39.1102 9.41443 40.1349 9.97167 41.17 10.5065C41.3529 10.6014 41.5496 10.6738 41.748 10.7342C42.2483 10.8843 42.6313 10.6445 43.0211 10.334H43.0194ZM30.2272 29.7578C30.3945 29.5663 30.5481 29.3903 30.7016 29.2161C30.7637 29.147 30.762 29.0849 30.6982 29.0159C30.5791 28.8883 30.4791 28.7434 30.3497 28.6295C29.6268 27.9825 28.8988 27.3425 28.1725 26.7007C28.0983 26.6352 28.0207 26.5696 27.9344 26.4954C27.8171 26.8163 27.8188 27.1217 27.8723 27.4288C27.9189 27.6841 27.9896 27.948 28.188 28.1154C28.8522 28.6709 29.5371 29.2057 30.2255 29.7578H30.2272ZM24.0579 26.4972C24.0165 26.5282 23.9958 26.5403 23.9786 26.5558C23.1608 27.277 22.3414 27.9981 21.5288 28.7244C21.4219 28.8193 21.3391 28.9435 21.258 29.0625C21.2373 29.0918 21.2493 29.1677 21.2752 29.1988C21.4288 29.3851 21.5892 29.5663 21.7548 29.756C22.4121 29.2299 23.0608 28.714 23.706 28.1965C23.7664 28.1482 23.8285 28.0964 23.8682 28.0326C24.1649 27.5582 24.2132 27.051 24.0579 26.4972ZM14.095 12.0126C15.5442 10.5047 16.9847 9.00729 18.4425 7.48913C18.0733 7.42358 17.7714 7.377 17.4833 7.69616C16.926 8.30859 16.3205 8.8779 15.7357 9.46447C15.2423 9.95959 14.7558 10.4599 14.2555 10.9447C13.9863 11.2069 13.8966 11.6658 14.095 12.0108V12.0126ZM27.6567 25.8002C27.6774 25.7571 27.6877 25.7364 27.6946 25.7157C28.05 24.7151 28.4037 23.7145 28.7556 22.7139C28.7677 22.6776 28.7487 22.6293 28.7435 22.5879C28.7004 22.5948 28.6504 22.5896 28.6159 22.6103C28.2001 22.8484 27.7878 23.0899 27.3737 23.3315C27.0184 23.5385 26.6647 23.7455 26.2972 23.9594C26.7527 24.5753 27.1978 25.1809 27.6567 25.8002ZM24.3219 25.8054C24.7842 25.1791 25.2311 24.5736 25.6744 23.9715C25.6572 23.9508 25.652 23.9422 25.6434 23.937C24.8791 23.4902 24.1149 23.0434 23.3489 22.5983C23.3178 22.581 23.2471 22.5758 23.2385 22.5914C23.2195 22.6241 23.2126 22.6776 23.2247 22.7156C23.3196 22.9951 23.4179 23.2711 23.5162 23.5488C23.7802 24.2889 24.0441 25.0308 24.3184 25.8054H24.3219ZM41.3546 10.955C40.1263 10.3184 38.9083 9.68701 37.6817 9.05042C37.611 9.28677 37.5368 9.49724 37.5903 9.73187C37.661 10.0441 37.8698 10.2184 38.1475 10.3305C38.6771 10.5444 39.205 10.7584 39.6639 11.1086C39.6898 11.1293 39.7226 11.1413 39.7519 11.1586C40.3074 11.4864 41.0079 11.2621 41.3546 10.955ZM17.221 7.54261C17.2141 7.52881 17.2072 7.51329 17.2021 7.49948C16.964 7.49948 16.7242 7.48913 16.4861 7.50293C16.248 7.51501 16.0669 7.6375 15.9013 7.81174C15.3509 8.3914 14.7851 8.95899 14.2296 9.5352C14.1157 9.65251 14.0139 9.78362 13.9225 9.91991C13.7448 10.1821 13.7431 10.6341 13.8811 10.8136C14.9921 9.72669 16.1066 8.63465 17.221 7.54261ZM26.1954 24.3027L26.1661 24.3286V28.6191C26.3162 28.3862 26.4335 28.1482 26.5543 27.9118C26.8079 27.4115 27.0632 26.9129 27.3185 26.4144C27.4048 26.2453 27.4255 26.0849 27.2668 25.9399C27.2288 25.9054 27.2081 25.852 27.1788 25.8071C26.8855 25.3465 26.5922 24.8841 26.2972 24.4235C26.2696 24.3786 26.2282 24.3441 26.1937 24.3045L26.1954 24.3027ZM25.8245 24.3234C25.8125 24.3165 25.8004 24.3096 25.7883 24.3027C25.7521 24.3441 25.7089 24.3821 25.6796 24.4287C25.3639 24.9221 25.062 25.4241 24.7308 25.9054C24.6135 26.0762 24.5634 26.2194 24.66 26.4057C25.0206 27.1113 25.3794 27.8187 25.7383 28.526C25.7555 28.5605 25.7797 28.5915 25.8004 28.6243L25.8245 28.614V24.3234ZM28.2898 14.6952C28.2812 14.6642 28.2795 14.6486 28.2743 14.6366C27.9137 13.9672 27.5532 13.2978 27.1874 12.6302C27.1615 12.5836 27.1081 12.5318 27.0598 12.5215C26.8269 12.4784 26.5922 12.449 26.3455 12.4128C26.6302 13.3392 26.9045 14.2294 27.1805 15.1282C27.5704 14.9764 27.9293 14.835 28.2898 14.6952ZM25.6296 12.4335C25.4519 12.4421 25.2811 12.4421 25.1155 12.4628C24.9412 12.4835 24.8153 12.5698 24.7273 12.7423C24.4133 13.3478 24.0804 13.9465 23.756 14.5468C23.7319 14.5917 23.7129 14.6383 23.6853 14.6935C24.0614 14.8401 24.422 14.9799 24.8015 15.1282C25.0793 14.226 25.3518 13.3375 25.6296 12.4335ZM10.2341 10.7514C11.371 11.238 12.4906 11.7176 13.624 12.2023C13.6637 11.7452 13.4015 11.4726 13.0892 11.2811C12.5251 10.9343 11.9316 10.6359 11.3485 10.3184C11.2019 10.2391 11.0449 10.1787 10.8776 10.2253C10.5929 10.3029 10.3842 10.4789 10.2358 10.7514H10.2341ZM36.4448 12.399C36.3136 11.9504 36.0342 11.7434 35.6322 11.7037C35.2337 11.6641 34.8317 11.6434 34.4315 11.614C34.1382 11.5933 33.8432 11.5571 33.5499 11.5554C33.2394 11.5554 33.1773 11.633 33.1755 11.9384C33.1755 12.0022 33.1704 12.066 33.1807 12.1264C33.1997 12.2368 33.2445 12.3352 33.3756 12.3438C33.574 12.3559 33.7724 12.3645 33.9708 12.3697C34.4021 12.38 34.8334 12.3904 35.2647 12.3955C35.6512 12.4007 36.0376 12.3955 36.4465 12.3955L36.4448 12.399ZM32.0973 12.0729C32.0938 12.0419 32.099 12.0039 32.0887 11.9988C31.9334 11.9142 31.7781 11.7745 31.616 11.7641C30.9638 11.721 30.31 11.7176 29.6562 11.702C28.6832 11.6779 27.7084 11.6658 26.7372 11.6278C26.525 11.6192 26.3731 11.6554 26.2662 11.8366C26.261 11.8452 26.2593 11.8538 26.2575 11.859C26.3697 12.0212 26.5163 12.0764 26.7164 12.0747C28.4658 12.0695 30.2151 12.0764 31.9627 12.0798C32.0059 12.0798 32.0473 12.0764 32.0973 12.0729ZM5.85727 11.219C5.89005 11.2828 5.91765 11.3242 5.93318 11.3673C5.99184 11.5364 6.1057 11.5882 6.28684 11.5882C6.91653 11.5916 7.54623 11.6227 8.17592 11.633C8.99883 11.6468 9.82174 11.7227 10.6429 11.6123C10.6861 11.6071 10.7499 11.5606 10.7585 11.5243C10.7654 11.4881 10.7223 11.4225 10.6843 11.4018C10.5912 11.3518 10.4877 11.3208 10.3893 11.2828C10.2151 11.2155 10.0477 11.1413 9.84762 11.1465C8.55891 11.1724 7.2702 11.1879 5.98148 11.2086C5.94871 11.2086 5.91593 11.2138 5.85727 11.219ZM25.3156 36.2651C25.3156 36.2651 25.3311 36.2651 25.3398 36.2651C25.3398 35.8873 25.3398 35.5095 25.3398 35.1317C25.3398 35.0748 25.3363 35.0144 25.3208 34.9592C25.2932 34.8539 25.219 34.8074 25.1258 34.8746C24.9861 34.9747 24.8308 35.0713 24.729 35.2042C24.384 35.6493 24.315 36.1616 24.4392 36.7016C24.5237 37.0725 24.7014 37.39 25.0309 37.597C25.0896 37.6332 25.1897 37.666 25.2397 37.6401C25.288 37.6142 25.3121 37.5107 25.3139 37.4417C25.3208 37.0501 25.3173 36.6568 25.3173 36.2634L25.3156 36.2651ZM26.6405 36.2651C26.6405 36.2651 26.6578 36.2651 26.6664 36.2651C26.6664 36.6723 26.663 37.0794 26.6681 37.4866C26.6699 37.666 26.7648 37.7195 26.9131 37.6211C27.0287 37.5452 27.1443 37.4555 27.2306 37.3486C27.5859 36.9017 27.6687 36.3859 27.5497 35.8407C27.4617 35.4353 27.2685 35.0886 26.8821 34.8867C26.7458 34.816 26.6785 34.8488 26.6492 35.0023C26.6405 35.0454 26.6405 35.0886 26.6405 35.1317C26.6405 35.5095 26.6405 35.8873 26.6405 36.2651ZM22.5812 21.2009C21.5668 19.9743 20.3454 19.0013 19.0204 18.1421C19.0083 18.3664 19.0411 18.5562 19.2188 18.7097C19.921 19.3187 20.6162 19.9363 21.3149 20.5505C21.6565 20.8507 21.9964 21.1491 22.3466 21.4562C22.419 21.3786 22.4829 21.3078 22.5812 21.2009ZM29.6251 21.451C29.6493 21.4372 29.6596 21.4338 29.6665 21.4269C30.7137 20.5056 31.7626 19.5861 32.8081 18.6631C32.9616 18.5286 32.9771 18.344 32.9737 18.1456C32.9426 18.1559 32.9288 18.1576 32.915 18.1645C32.8857 18.1801 32.8546 18.1973 32.827 18.2146C31.6694 18.9616 30.624 19.8414 29.6872 20.8524C29.5837 20.9645 29.5009 21.0956 29.4095 21.2164C29.4905 21.3044 29.5544 21.3751 29.6217 21.4527L29.6251 21.451ZM22.0188 20.0208C22.0395 20.0174 22.0602 20.0157 22.0809 20.0122C22.0809 19.9398 22.0964 19.8621 22.0774 19.7948C22.0326 19.6361 21.9739 19.4826 21.9118 19.329C21.8877 19.2704 21.8463 19.21 21.798 19.1703C20.975 18.4906 20.1504 17.8161 19.3258 17.1398C19.2913 17.1122 19.2516 17.0915 19.2136 17.0673C19.1843 17.1087 19.1671 17.1329 19.1515 17.157C19.0118 17.3658 19.0377 17.5556 19.2309 17.716C19.7674 18.1611 20.3057 18.6062 20.8439 19.0513C21.2355 19.3756 21.6272 19.7 22.0188 20.0226V20.0208ZM32.7977 17.0432C32.7322 17.0829 32.7149 17.0915 32.6994 17.1036C31.8489 17.8005 30.9966 18.4992 30.1478 19.1979C30.1133 19.2273 30.0875 19.2721 30.0702 19.3152C30.0081 19.4774 29.9425 19.6413 29.896 19.8086C29.8787 19.8725 29.9063 19.9484 29.9149 20.0484C29.9822 19.9984 30.0115 19.9794 30.0374 19.9587C30.9518 19.2014 31.8678 18.4458 32.7787 17.6832C32.8443 17.628 32.9047 17.5228 32.9012 17.4417C32.8978 17.3158 32.8374 17.1915 32.796 17.0449L32.7977 17.0432ZM23.9562 28.3966C23.3058 28.9072 22.6795 29.4007 22.0533 29.8975C22.0291 29.9165 22.0015 29.9682 22.0119 29.9907C22.1033 30.227 22.2362 30.434 22.4949 30.5151C22.5398 30.5289 22.6122 30.5082 22.6502 30.4789C23.0539 30.1563 23.4541 29.8285 23.8544 29.5007C23.9061 29.4593 23.9751 29.4214 23.9993 29.3661C24.139 29.047 24.108 28.7313 23.9579 28.3983L23.9562 28.3966ZM28.0293 28.4018C27.912 28.6053 27.8896 28.8037 27.8965 29.009C27.9034 29.2299 27.9758 29.4041 28.1742 29.5473C28.5555 29.8199 28.9109 30.1287 29.2766 30.422C29.4388 30.5513 29.5181 30.5634 29.6682 30.4185C29.7804 30.3098 29.8597 30.1684 29.9512 30.039C29.996 29.9769 29.9753 29.9303 29.9115 29.882C29.7562 29.7664 29.6061 29.6422 29.4543 29.5231C28.9833 29.1522 28.5124 28.7813 28.0293 28.4018ZM23.4144 14.59C23.4421 14.5451 23.461 14.5175 23.4783 14.4882C23.7974 13.8947 24.1149 13.3013 24.4323 12.7078C24.4444 12.6871 24.4582 12.6664 24.4651 12.644C24.5048 12.5318 24.4496 12.4594 24.3305 12.4663C24.2581 12.4697 24.1822 12.4663 24.1131 12.487C23.8526 12.5663 23.5887 12.6353 23.43 12.8976C23.1781 13.3116 22.9107 13.7153 22.6502 14.1242C22.6243 14.1639 22.6019 14.2053 22.5691 14.2622C22.8555 14.3743 23.1298 14.4813 23.4127 14.5917L23.4144 14.59ZM29.4043 14.2622C29.387 14.226 29.3819 14.207 29.3715 14.1915C29.0748 13.7257 28.778 13.2599 28.4796 12.7941C28.4554 12.7561 28.4175 12.7182 28.3761 12.6975C28.1639 12.5836 27.9534 12.4611 27.7015 12.468C27.6446 12.4697 27.5428 12.4749 27.5376 12.4973C27.5221 12.5646 27.5221 12.6509 27.5532 12.7095C27.8637 13.3013 28.1811 13.8896 28.4968 14.4796C28.5158 14.5158 28.5417 14.5503 28.5676 14.5883C28.8488 14.4778 29.1179 14.3726 29.4026 14.2622H29.4043ZM26.2472 29.2575C26.625 29.2575 26.9821 29.2626 27.3375 29.254C27.4583 29.2523 27.5532 29.1367 27.5532 29.0211C27.5566 28.3379 27.5583 27.6548 27.5601 26.9716C27.5601 26.944 27.5549 26.9164 27.5514 26.894C27.4238 26.837 27.3634 26.8767 27.3099 26.994C27.0201 27.622 26.7216 28.2465 26.4266 28.871C26.368 28.997 26.3093 29.1229 26.2472 29.2575ZM24.4306 26.8922C24.4254 26.9078 24.4202 26.9164 24.4202 26.925C24.4202 27.6272 24.4168 28.331 24.4323 29.0332C24.4323 29.1091 24.5444 29.2419 24.6083 29.2454C24.9757 29.2661 25.3467 29.2557 25.7245 29.2557C25.7089 29.2178 25.6951 29.1781 25.6779 29.1401C25.3415 28.4276 25.0016 27.7151 24.6704 26.9992C24.6169 26.8836 24.5565 26.8405 24.4306 26.894V26.8922ZM12.0386 7.71513C11.9092 7.71513 11.8247 7.71513 11.7384 7.71513C11.6039 7.71341 11.4934 7.75136 11.3865 7.84625C11.0483 8.14298 10.6964 8.42591 10.3496 8.71401C9.82347 9.15048 9.29901 9.58695 8.77283 10.0251C8.67967 10.1028 8.67795 10.1873 8.77456 10.208C8.88842 10.2339 9.00745 10.277 9.12304 10.1959C9.39217 10.0079 9.66475 9.82675 9.93733 9.64388C10.617 9.18844 11.2278 8.65363 11.7815 8.05327C11.8678 7.96011 11.9368 7.85142 12.0386 7.71858V7.71513ZM13.4291 11.0758C13.4998 10.8377 13.5309 10.6117 13.3998 10.4202C13.0668 9.93026 12.6286 9.5697 12.0386 9.42824C11.6677 9.33853 11.4607 9.40408 11.264 9.86643C11.9782 10.2649 12.6942 10.6652 13.4291 11.0758ZM42.2327 9.63526C42.6382 9.78707 42.9918 9.66631 43.3403 9.48862C43.6336 9.33853 43.9286 9.19534 44.227 9.05732C44.8136 8.78302 45.4019 8.51389 45.9885 8.24131C46.0437 8.21543 46.0902 8.17231 46.1403 8.13608C45.6952 8.04809 45.3639 8.05499 44.9654 8.23096C44.1563 8.58635 43.361 8.97279 42.5605 9.34715C42.4398 9.40236 42.319 9.45584 42.1982 9.51104C42.2138 9.56625 42.2258 9.61283 42.2327 9.63526ZM12.2767 11.9349C10.2358 11.8797 8.21042 11.8245 6.15918 11.7693C6.21438 11.8711 6.24371 11.9504 6.29374 12.0126C6.32997 12.0557 6.3938 12.104 6.44728 12.104C8.32773 12.1195 10.2082 12.1299 12.0886 12.1419C12.1507 12.1419 12.2111 12.1419 12.2784 12.1419V11.9349H12.2767ZM35.7219 11.3587C35.7374 11.3363 35.753 11.3156 35.7685 11.2932C35.7098 11.2518 35.6477 11.2155 35.596 11.1672C35.2837 10.8826 34.9697 10.6014 34.5436 10.4961C34.1399 10.3978 33.7345 10.434 33.3308 10.4875C33.1635 10.5099 33.0824 10.6445 33.091 10.8308C33.0979 10.9774 33.1807 11.062 33.3532 11.0896C33.7586 11.1551 34.1606 11.2345 34.5678 11.2811C34.9507 11.3242 35.3389 11.3346 35.7236 11.3587H35.7219ZM7.84123 9.73877C8.01375 9.95614 8.35534 10.0027 8.53648 9.844C9.2162 9.25227 9.89592 8.66053 10.5739 8.06879C10.674 7.98081 10.7723 7.89283 10.8879 7.78932C10.586 7.69098 10.3358 7.75481 10.1098 7.9118C9.9149 8.04637 9.73721 8.20508 9.55261 8.35345C8.9833 8.81235 8.41572 9.27297 7.83951 9.73704L7.84123 9.73877ZM39.6605 11.4933C38.91 11.0879 38.1803 10.6945 37.4281 10.2874C37.4281 10.5306 37.4212 10.7325 37.4316 10.9343C37.435 11.0068 37.4609 11.0879 37.5023 11.1448C37.9457 11.7279 39.0187 11.909 39.6605 11.4933ZM44.6721 12.1074C44.8015 12.261 44.8015 12.2627 44.9447 12.1402C45.1845 11.9349 45.3087 11.6554 45.4312 11.3777C45.6572 10.855 45.8763 10.3305 46.0971 9.80605C46.1886 9.58868 46.2783 9.37131 46.368 9.15566C46.2352 9.06595 46.1299 9.06422 46.0143 9.17636C45.5865 9.59213 45.3105 10.0976 45.1742 10.6704C45.0551 11.1638 44.9206 11.6485 44.6739 12.1074H44.6721ZM29.1835 12.5439V12.5405C29.073 12.5336 28.9609 12.5198 28.8505 12.5198C28.7694 12.5198 28.7021 12.5439 28.7487 12.6526C28.7694 12.7009 28.7694 12.7596 28.797 12.8027C29.0679 13.234 29.3422 13.6618 29.6199 14.0879C29.6389 14.1156 29.7045 14.1414 29.7338 14.1311C29.9218 14.0655 30.1064 13.9948 30.2893 13.9154C30.379 13.8758 30.4428 13.8171 30.3721 13.7015C30.1772 13.3893 29.9926 13.0701 29.7942 12.7596C29.7062 12.6233 29.5889 12.5163 29.4008 12.5422C29.3301 12.5525 29.2559 12.5422 29.1835 12.5422V12.5439ZM23.0867 12.5232C22.9366 12.5301 22.7848 12.556 22.6364 12.5405C22.3966 12.5163 22.2586 12.6388 22.1482 12.8251C21.9791 13.108 21.8066 13.3875 21.6358 13.6705C21.5547 13.8033 21.572 13.8637 21.7151 13.9241C21.8756 13.9913 22.0429 14.0465 22.2016 14.119C22.2983 14.1639 22.3448 14.1363 22.3983 14.0517C22.6502 13.648 22.909 13.2512 23.1626 12.8493C23.1936 12.801 23.2126 12.7458 23.2281 12.6906C23.2695 12.5422 23.2454 12.5163 23.0884 12.5249L23.0867 12.5232ZM30.4411 18.4509C30.4842 18.4251 30.5049 18.4164 30.5222 18.4026C31.2036 17.8747 31.8868 17.3503 32.5648 16.8172C32.6131 16.7792 32.6442 16.6964 32.6511 16.6309C32.6649 16.5067 32.6545 16.3807 32.6545 16.2461C32.6217 16.2548 32.5959 16.2548 32.5769 16.2651C32.2181 16.4911 31.8644 16.7275 31.4987 16.9431C31.1553 17.145 30.9 17.4279 30.6706 17.7419C30.5239 17.9437 30.467 18.1801 30.4394 18.4509H30.4411ZM21.5357 18.4561C21.5357 18.4009 21.5357 18.3733 21.5357 18.3457C21.5357 18.3215 21.5288 18.2991 21.5254 18.275C21.4374 17.7747 21.1182 17.421 20.7456 17.1243C20.4247 16.8707 20.0641 16.6671 19.7174 16.4463C19.5983 16.3704 19.4707 16.3083 19.3292 16.2289C19.3292 16.3514 19.3292 16.448 19.3292 16.5446C19.3258 16.6826 19.3689 16.7861 19.4879 16.8758C20.0555 17.3054 20.6162 17.7436 21.1803 18.1784C21.2942 18.2663 21.4081 18.3526 21.5375 18.4527L21.5357 18.4561ZM9.36629 10.4616C9.54571 10.6531 9.79414 10.6773 9.97528 10.5289C10.027 10.4875 10.0615 10.4254 10.1098 10.3805C10.9103 9.61283 11.7125 8.84513 12.513 8.07742C12.6234 7.97046 12.7269 7.8566 12.8425 7.73583C12.8149 7.70478 12.7839 7.672 12.7459 7.63232C11.6125 8.58117 10.4894 9.5214 9.36457 10.4633L9.36629 10.4616ZM13.7051 9.5421C14.3676 8.90033 15.0232 8.26374 15.6943 7.61335C14.566 7.40978 13.5102 8.65881 13.7051 9.5421ZM26.2282 10.9964C26.3766 11.2207 26.5284 11.3208 26.7682 11.3052C27.0287 11.288 27.2909 11.319 27.5532 11.3294C28.6573 11.3742 29.7614 11.4208 30.8655 11.4657C30.9138 11.4674 30.9621 11.4605 31.0104 11.4588C31.0156 11.4381 31.0208 11.4156 31.026 11.3949C30.8655 11.3294 30.7102 11.2362 30.5429 11.2052C29.7873 11.0637 29.0178 11.0723 28.2553 11.0741C27.6377 11.0758 27.027 11.0689 26.4214 10.9481C26.3697 10.9378 26.3076 10.974 26.2299 10.9947L26.2282 10.9964ZM45.4381 12.1989C45.6037 12.1506 45.7418 12.1488 45.809 11.9953C46.2766 10.9171 46.7493 9.84055 47.2185 8.76404C47.234 8.72954 47.2444 8.69331 47.2582 8.65881C47.1961 8.68296 47.1599 8.72264 47.1236 8.76059C46.7613 9.12115 46.506 9.5559 46.2835 10.0079C46.0316 10.522 45.7952 11.0465 45.5744 11.5761C45.4968 11.7624 45.4847 11.9746 45.4381 12.1972V12.1989ZM5.51051 10.5789C5.56054 10.6721 5.60022 10.7618 5.65543 10.8412C5.67785 10.8739 5.73306 10.9033 5.77274 10.9033C6.30927 10.9084 6.84753 10.9084 7.38406 10.9067C7.71702 10.9067 8.0517 10.9015 8.38466 10.8946C8.61929 10.8895 8.85219 10.8739 9.10406 10.8619C8.65552 10.5134 6.23336 10.346 5.51224 10.5807L5.51051 10.5789ZM44.4634 8.06534C44.4634 8.04464 44.4634 8.02221 44.4617 8.00151C44.1546 8.00151 43.8458 7.98944 43.5387 8.00669C43.4041 8.01531 43.2661 8.06879 43.1454 8.1309C42.9521 8.23096 42.7744 8.36035 42.5864 8.46731C42.2293 8.66916 41.8687 8.86583 41.5099 9.06595C41.4823 9.08147 41.4564 9.11943 41.453 9.14876C41.4512 9.17118 41.4823 9.21431 41.5064 9.22121C41.7549 9.29195 41.9912 9.33508 42.2414 9.17809C42.6002 8.95209 42.9763 8.75024 43.3558 8.5622C43.7181 8.38105 44.0942 8.22924 44.4651 8.06534H44.4634ZM22.7278 30.8239C22.8969 31.0085 23.0487 31.1793 23.2074 31.3432C23.2333 31.3691 23.2971 31.3846 23.3299 31.3708C23.6888 31.2362 23.9579 31.0033 24.0683 30.6255C24.1494 30.3478 24.1149 30.0769 23.9562 29.8147C23.5611 30.1408 23.1798 30.4565 22.7986 30.7704C22.7796 30.786 22.7589 30.7998 22.7278 30.8239ZM28.0345 29.8164C27.6946 30.3978 27.9517 31.1207 28.6676 31.3743C28.6987 31.3846 28.7556 31.3725 28.778 31.3484C28.9385 31.181 29.0938 31.0085 29.2576 30.8291C28.847 30.491 28.4451 30.158 28.0345 29.8164ZM47.0788 8.13953C47.0425 8.14815 47.0149 8.1516 46.9873 8.16368C46.5785 8.3362 46.1627 8.49491 45.7625 8.68641C44.893 9.1039 44.0545 9.58868 43.1471 9.92509C43.1195 9.93544 43.0815 9.97684 43.0833 10.001C43.0833 10.0286 43.1212 10.0614 43.1505 10.0786C43.3179 10.1821 43.4818 10.1476 43.6439 10.0631C43.863 9.94924 44.0787 9.8302 44.2995 9.71979C45.2484 9.24192 46.1972 8.76577 47.153 8.28617C47.1271 8.23441 47.1046 8.18783 47.0805 8.14125L47.0788 8.13953ZM45.1811 9.79225C44.6687 10.0752 44.3478 10.503 44.2184 11.0534C44.146 11.3656 44.0821 11.6727 43.9148 11.9504C43.8596 12.0436 43.8078 12.1402 43.7492 12.2437C43.8009 12.2489 43.8354 12.2489 43.8665 12.2575C44.2443 12.3541 44.4013 12.2041 44.4962 11.84C44.5859 11.495 44.6946 11.1569 44.8084 10.8187C44.924 10.4737 45.0551 10.1338 45.1793 9.79052L45.1811 9.79225ZM7.13563 9.41788C7.29607 9.55935 7.52897 9.60248 7.63421 9.51449C8.25528 8.99694 8.87807 8.47766 9.49913 7.95838C9.53191 7.93078 9.55951 7.89628 9.59057 7.8635L9.57159 7.82209C9.4353 7.83417 9.30073 7.85142 9.16445 7.8566C8.9557 7.8635 8.77973 7.93941 8.62619 8.0757C8.33808 8.33447 8.04825 8.59325 7.76015 8.85375C7.55313 9.04007 7.3461 9.22812 7.13736 9.41616L7.13563 9.41788ZM25.7003 9.06767C25.6296 9.07285 25.5209 9.0556 25.5036 9.08838C25.4243 9.22812 25.3191 9.38338 25.3156 9.53347C25.3035 10.2839 25.326 11.0344 25.3242 11.7848C25.3242 11.9504 25.3967 12.054 25.5105 12.1592C25.6106 12.0609 25.7193 11.9798 25.7176 11.8228C25.7124 10.936 25.7124 10.051 25.7107 9.16428C25.7107 9.14013 25.7055 9.1177 25.7003 9.06767ZM36.9968 12.1609C37.0468 11.5761 37.0969 10.9947 37.1452 10.4116C37.178 10.0217 37.209 9.63008 37.2401 9.24019C37.2797 8.76749 37.3229 8.29652 37.3591 7.82382C37.3694 7.68753 37.2659 7.59782 37.1193 7.60472C37.0089 9.12805 36.8967 10.6531 36.7846 12.1833C36.8691 12.173 36.9261 12.1678 36.9951 12.1592L36.9968 12.1609ZM34.5764 10.139C34.4556 9.90439 34.2814 9.70599 34.0864 9.52657C33.9294 9.38166 33.7586 9.27987 33.5275 9.30747C33.3653 9.32645 33.198 9.31092 33.0341 9.3161C32.9789 9.3161 32.9237 9.33163 32.8702 9.34025C32.9116 9.87851 33.1617 10.1218 33.6707 10.1373C33.6896 10.1373 33.7086 10.139 33.7293 10.139C34.0088 10.139 34.2865 10.139 34.5781 10.139H34.5764ZM24.1425 9.88023C24.1166 9.87678 24.089 9.87161 24.0631 9.86816C24.001 9.94234 23.9337 10.0131 23.8802 10.0924C23.8371 10.1545 23.7819 10.2287 23.7819 10.2995C23.775 10.8274 23.7819 11.3535 23.7819 11.8814C23.7819 11.9401 23.7785 11.9988 23.7888 12.0557C23.8112 12.1782 23.8975 12.2386 24.0148 12.2403C24.1183 12.2403 24.1873 12.1868 24.1977 12.0747C24.2029 12.0126 24.2218 11.9522 24.2218 11.8901C24.2236 11.3001 24.2253 10.7083 24.2201 10.1183C24.2201 10.0389 24.1684 9.96132 24.1425 9.88196V9.88023ZM24.7515 12.1488C24.855 12.0522 24.9585 11.9522 24.9585 11.7952C24.9585 11.093 24.9516 10.3909 24.9533 9.68874C24.9533 9.56625 24.8964 9.51795 24.8015 9.49552C24.6014 9.73704 24.5272 9.99927 24.5462 10.3081C24.5738 10.786 24.572 11.2673 24.5686 11.7469C24.5686 11.9125 24.6152 12.0367 24.7532 12.1506L24.7515 12.1488ZM7.79293 10.1908C7.37371 9.79742 5.59677 9.57488 5.10509 9.84055C5.14132 9.90784 5.18618 9.97339 5.21378 10.0441C5.25863 10.1597 5.33454 10.1959 5.45875 10.1925C5.85555 10.1839 6.25061 10.189 6.64741 10.189C7.02004 10.189 7.39268 10.189 7.7912 10.189L7.79293 10.1908ZM18.4097 8.05844C18.1682 8.16713 17.8128 11.7124 17.9525 12.3662H18.1268C18.2217 10.9309 18.3148 9.50242 18.4097 8.05844ZM29.6976 10.7359C28.9661 10.3857 26.713 10.3012 26.3369 10.5789C27.4531 10.7566 28.571 10.9257 29.6976 10.7359ZM24.5669 29.656C25.0033 30.0786 25.4243 30.4841 25.8314 30.8809C25.8314 30.5772 25.8314 30.2391 25.8314 29.8992C25.8314 29.6715 25.7952 29.6318 25.5658 29.6301C25.2794 29.6266 24.9947 29.6284 24.7083 29.6301C24.6652 29.6301 24.6221 29.6456 24.5669 29.656ZM26.1661 30.8533C26.5646 30.4685 26.9839 30.0631 27.41 29.6508C27.3841 29.6439 27.353 29.6301 27.322 29.6301C27.0115 29.6301 26.7026 29.6284 26.3921 29.6301C26.3542 29.6301 26.3162 29.6456 26.28 29.6543C26.1954 29.6715 26.1627 29.7215 26.1644 29.8095C26.1696 30.0027 26.1661 30.1977 26.1661 30.3909C26.1661 30.5669 26.1661 30.7446 26.1661 30.855V30.8533ZM42.8607 7.96873C42.2017 7.82037 41.346 8.14298 40.7905 8.74852C41.4495 8.91241 42.5381 8.42073 42.8607 7.96873ZM13.2859 9.69391C13.3032 9.68529 13.3221 9.67666 13.3394 9.66804C13.3101 9.46964 13.3049 9.26434 13.248 9.07285C13.1703 8.81235 12.9995 8.61395 12.708 8.59152C12.4009 8.56737 12.1956 8.74506 12.0231 8.99867C12.4509 9.23502 12.8684 9.46447 13.2859 9.69391ZM36.8277 7.80139C36.8053 7.79794 36.7829 7.79622 36.7605 7.79277C36.4016 9.01592 36.2239 10.2511 36.4516 11.5192L36.5103 11.5243C36.6155 10.2839 36.7208 9.04352 36.8277 7.80139ZM30.0202 12.575C30.0271 12.6077 30.0271 12.6233 30.034 12.6336C30.222 12.9442 30.4083 13.2564 30.5998 13.5652C30.6223 13.6032 30.6688 13.6308 30.7102 13.6498C30.8534 13.7136 30.9811 13.6567 31.1053 13.5842C31.2882 13.4772 31.2951 13.4514 31.1864 13.2737C31.1553 13.2236 31.1243 13.1753 31.095 13.1253C30.9984 12.9614 30.9017 12.7958 30.7913 12.6095C30.6085 12.5991 30.3876 12.5853 30.1651 12.575C30.122 12.5732 30.0788 12.575 30.0202 12.575ZM21.986 12.6008C21.7376 12.6008 21.5116 12.6008 21.2838 12.6008C21.2459 12.6008 21.2079 12.606 21.189 12.6077C21.1441 12.7009 21.1096 12.7854 21.0648 12.8631C20.9923 12.989 20.9129 13.1115 20.837 13.234C20.7007 13.4565 20.7128 13.4997 20.9543 13.617C20.994 13.636 21.0371 13.6687 21.0734 13.6636C21.1769 13.648 21.3287 13.6515 21.3736 13.5859C21.5927 13.2685 21.7824 12.9321 21.986 12.6008ZM23.0332 23.1969C22.9538 24.0371 23.6008 25.9348 23.9424 26.0918C23.9596 25.8571 23.9682 25.626 23.8716 25.3982C23.7129 25.0204 23.5783 24.6322 23.4317 24.2493C23.2989 23.899 23.166 23.5488 23.0315 23.1969H23.0332ZM28.0793 26.1021C28.6659 25.224 28.9247 24.2441 28.9885 23.2021C28.9471 23.2469 28.9247 23.297 28.9057 23.3487C28.6469 24.0302 28.3968 24.7133 28.1276 25.3913C28.0345 25.626 28.0362 25.8554 28.0793 26.1021ZM43.104 12.2886C43.2178 12.2248 43.3162 12.173 43.411 12.1143C43.4507 12.0902 43.4956 12.0574 43.5111 12.0177C43.7267 11.476 43.9407 10.9326 44.1494 10.3874C44.1667 10.3443 44.1477 10.2874 44.1442 10.2356C44.0908 10.2511 44.0235 10.2511 43.9855 10.2839C43.744 10.4909 43.6008 10.7618 43.4869 11.0551C43.3386 11.4329 43.3075 11.8625 42.9935 12.1644C43.0367 12.2127 43.0695 12.2489 43.104 12.2886ZM24.9326 39.11C25.0672 38.8667 25.1931 38.6511 25.1828 38.3957C25.1793 38.3181 25.1414 38.2094 25.0844 38.1715C24.767 37.9713 24.4392 37.785 24.1114 37.6022C24.0752 37.5815 24.0148 37.5987 23.9337 37.5987C24.2822 38.1249 24.6014 38.6079 24.9343 39.11H24.9326ZM27.0632 39.1031C27.1012 39.0496 27.1339 39.0099 27.1615 38.9668C27.4341 38.5562 27.705 38.1456 27.9741 37.7333C27.9983 37.697 27.9983 37.6436 28.0086 37.5987C27.9569 37.6056 27.8982 37.597 27.8568 37.6211C27.5635 37.7902 27.2806 37.9748 26.9821 38.1335C26.8545 38.2025 26.8062 38.2888 26.8096 38.4182C26.8182 38.6683 26.9321 38.8788 27.0615 39.1048L27.0632 39.1031ZM19.5621 15.4664C19.5656 15.632 19.5414 15.8149 19.6846 15.9253C20.0728 16.2254 20.4747 16.5101 20.8733 16.7999C20.9129 16.8293 20.963 16.8431 21.0182 16.8689C20.9336 16.3359 20.2522 15.5509 19.5621 15.4664ZM30.969 16.8776C31.0501 16.8362 31.1139 16.812 31.1674 16.7741C31.5228 16.5153 31.8713 16.2479 32.2301 15.9977C32.4285 15.8597 32.4354 15.6699 32.4337 15.4629C31.7281 15.5733 31.095 16.2996 30.969 16.8776ZM42.3431 12.1902C42.438 12.1678 42.5502 12.1764 42.6037 12.1247C43.0125 11.7279 43.1937 11.2276 43.2368 10.6617C42.7089 10.8205 42.2483 11.5951 42.3414 12.1902H42.3431ZM6.39035 9.13151C6.6405 9.18326 6.8389 9.23502 7.0373 9.03489C7.37026 8.69848 7.73254 8.3914 8.08276 8.07224C8.11899 8.03947 8.15176 8.00324 8.18627 7.96701C8.17592 7.95321 8.16384 7.94113 8.15349 7.92733C7.37543 8.02566 6.87858 8.54322 6.39208 9.13151H6.39035ZM29.1869 24.4252C29.1714 24.4632 29.1524 24.4994 29.1386 24.5374C29.004 24.9238 28.8695 25.312 28.7332 25.6984C28.6538 25.9244 28.5589 26.147 28.4882 26.3764C28.4296 26.5645 28.5745 26.7473 28.7763 26.768C28.8056 26.5869 28.8177 26.4023 28.8695 26.228C28.9488 25.9606 29.0592 25.7036 29.1507 25.4396C29.2645 25.1101 29.3025 24.7754 29.1869 24.4252ZM23.2454 26.7766C23.48 26.6887 23.5645 26.5593 23.4973 26.3281C23.4334 26.1125 23.3403 25.9054 23.2644 25.6932C23.1281 25.3068 22.9952 24.9204 22.8589 24.5339C22.8451 24.496 22.8244 24.4632 22.7917 24.3942C22.7037 24.6978 22.7192 24.9669 22.7882 25.2257C22.8486 25.4517 22.9607 25.6639 23.0263 25.8899C23.1108 26.1797 23.1712 26.4747 23.2454 26.7784V26.7766ZM17.3315 12.3127C17.3487 12.3196 17.366 12.3283 17.3832 12.3352C17.4332 12.2299 17.5057 12.1299 17.5316 12.0195C17.5971 11.7331 17.6541 11.4432 17.692 11.1534C17.749 10.7135 17.799 10.2718 17.8283 9.82848C17.849 9.50069 17.8318 9.17118 17.8318 8.8434C17.8197 8.8434 17.8076 8.8434 17.7955 8.8434C17.7835 8.87445 17.7714 8.90551 17.761 8.93483C17.6178 9.31955 17.5816 9.72497 17.5644 10.1304C17.5299 10.8636 17.5109 11.5968 17.3332 12.3145L17.3315 12.3127ZM27.3479 30.4358C27.3358 30.4289 27.3237 30.4237 27.3116 30.4168C27.0805 30.6825 26.8476 30.9481 26.6181 31.2155C26.5267 31.3225 26.3818 31.4243 26.368 31.5433C26.3524 31.6606 26.468 31.7952 26.5301 31.9211C26.5888 32.0419 26.6509 32.1609 26.7303 32.3145C26.9459 31.6606 27.1477 31.0482 27.3496 30.4358H27.3479ZM25.2725 32.3197C25.407 32.0488 25.5226 31.8176 25.6313 31.583C25.6434 31.5571 25.621 31.5002 25.5985 31.4726C25.3087 31.1327 25.0171 30.7963 24.7239 30.4599C24.7101 30.4444 24.6894 30.434 24.6376 30.3978C24.8533 31.0499 25.0551 31.6658 25.2725 32.3197ZM25.8142 39.5896V37.6867C25.8142 37.6867 25.8004 37.6832 25.7918 37.6815C25.5985 38.2698 25.4053 38.8564 25.1983 39.486C25.4122 39.5223 25.6054 39.5551 25.8125 39.5896H25.8142ZM26.2058 37.6798L26.1782 37.6867C26.1782 38.2853 26.1782 38.884 26.1816 39.4826C26.1816 39.5119 26.2248 39.5654 26.2489 39.5654C26.4318 39.5654 26.6147 39.5585 26.7872 39.4464C26.5922 38.8546 26.399 38.2681 26.2058 37.6798ZM39.9796 8.37415C40.4506 8.60015 41.1562 8.38105 41.6893 7.85315C41.032 7.74619 40.4782 7.94113 39.9796 8.37415ZM35.9979 10.9136C36.0894 10.4978 36.2981 7.94113 36.2602 7.69443C36.0169 7.91353 35.7788 10.5824 35.9979 10.9136ZM13.2635 12.4887C13.2635 12.4749 13.2635 12.4611 13.2635 12.4473H7.83778C7.83261 12.468 7.82915 12.4887 7.82398 12.5077C7.87401 12.5232 7.92577 12.5508 7.9758 12.5508C9.69753 12.5353 11.4175 12.5163 13.1393 12.4973C13.1807 12.4973 13.2221 12.4904 13.2652 12.487L13.2635 12.4887ZM26.2092 9.78017V9.97684C26.4059 10.0303 26.5922 10.1149 26.7837 10.1252C27.1684 10.1459 27.5549 10.1252 27.9396 10.12C28.0069 10.12 28.0724 10.12 28.1363 10.12C28.1794 9.88023 28.1742 9.88023 27.9655 9.86988C27.6618 9.85781 27.3582 9.83538 27.0546 9.81985C26.7751 9.80605 26.4974 9.79397 26.2092 9.78017ZM5.58124 8.72091C5.68993 8.88653 5.78136 8.92966 5.95043 8.87963C6.35412 8.76059 6.63015 8.47766 6.85615 8.12227C6.69571 8.11192 6.51457 8.07397 6.3938 8.1447C6.10915 8.30859 5.85382 8.52252 5.58124 8.72091ZM24.0924 9.03489C23.1401 9.57143 22.2016 10.0993 21.2649 10.6272C21.3063 10.7221 21.3529 10.7342 21.4305 10.6893C22.3276 10.1839 23.2281 9.68184 24.127 9.17809C24.139 9.17118 24.1511 9.16601 24.1632 9.15911C24.1373 9.11253 24.1183 9.07802 24.0924 9.03317V9.03489ZM24.12 33.5049C23.9027 34.5693 23.8958 35.6354 24.0752 36.7051C24.0907 36.7051 24.1045 36.7051 24.12 36.7051V33.5049ZM27.8792 36.7033C27.8965 36.7033 27.912 36.7033 27.9293 36.7016C28.1035 35.6337 28.1035 34.5693 27.8792 33.5066V36.7033ZM17.2435 9.17118C17.2228 9.41271 17.2021 9.63871 17.1831 9.86471C17.1382 10.3857 17.0951 10.9067 17.0503 11.4277C17.0278 11.6934 17.0019 11.9574 16.983 12.223C16.9812 12.2541 17.0157 12.2869 17.0347 12.3179C17.0554 12.2869 17.0917 12.2593 17.0951 12.2265C17.1193 12.0246 17.1365 11.8228 17.1555 11.6209C17.2003 11.1827 17.2469 10.7445 17.2901 10.3081C17.3263 9.94752 17.3573 9.58523 17.3901 9.22466C17.3901 9.21259 17.3815 9.19879 17.3763 9.17981C17.3384 9.17808 17.3004 9.17636 17.2435 9.17291V9.17118ZM22.5139 12.3231C22.6295 12.223 22.7865 12.1506 22.7882 12.0747C22.7986 11.6589 22.7727 11.2431 22.752 10.8274C22.752 10.8015 22.7002 10.7601 22.6692 10.7566C22.6364 10.7532 22.5864 10.7773 22.5674 10.8049C22.545 10.8377 22.5381 10.886 22.5363 10.9291C22.5191 11.3104 22.5036 11.6934 22.4898 12.0747C22.488 12.1402 22.5018 12.2058 22.5122 12.3231H22.5139ZM35.5546 10.0165C35.5546 10.0165 35.5425 10.02 35.5356 10.02C35.5494 9.93544 35.5649 9.85091 35.577 9.76465C35.6615 9.13323 35.7392 8.50009 35.8323 7.8704C35.8565 7.70996 35.8099 7.603 35.6805 7.52364C35.577 7.58402 35.5408 7.6651 35.5528 7.78069C35.5649 7.88593 35.5563 7.99289 35.5563 8.09985C35.5563 8.73816 35.5563 9.37648 35.5563 10.0148L35.5546 10.0165ZM21.9756 12.2782C22.0912 12.1903 22.1516 12.0816 22.1447 11.9315C22.1395 11.8107 22.1585 11.6899 22.1602 11.5692C22.1637 11.3846 22.1602 11.2 22.1602 10.9947C21.917 11.1224 21.7755 11.2811 21.779 11.5399C21.779 11.6468 21.7824 11.7521 21.779 11.859C21.7755 12.0264 21.8083 12.1764 21.9739 12.2782H21.9756ZM22.5018 23.9301C22.3949 23.8852 22.3724 23.9232 22.3552 24.0095C22.1671 24.9066 21.9722 25.8019 21.7807 26.6973C21.7427 26.8715 21.7031 27.0458 21.6686 27.22C21.6634 27.2442 21.6875 27.2752 21.6979 27.3028C21.7169 27.2821 21.7428 27.2649 21.7548 27.2407C21.7704 27.2114 21.7738 27.1769 21.7824 27.1441C21.8842 26.6869 21.9877 26.2315 22.0895 25.7743C22.2258 25.1636 22.3638 24.5512 22.5036 23.9301H22.5018ZM29.5043 23.9301C29.5095 23.9577 29.513 23.975 29.5164 23.9939C29.6562 24.6254 29.7959 25.255 29.9374 25.8865C30.0374 26.3333 30.1392 26.7801 30.2444 27.2269C30.2513 27.2545 30.2841 27.277 30.3048 27.3028C30.3135 27.2701 30.3342 27.2355 30.329 27.2045C30.3186 27.1286 30.2962 27.0544 30.2807 26.9785C30.0685 25.9882 29.8546 24.998 29.6458 24.0077C29.6286 23.9232 29.6061 23.8801 29.5043 23.9301ZM4.88772 9.43686H6.08155C5.87625 9.23502 5.24138 9.00212 5.00331 9.02454C4.86184 9.03835 4.82044 9.09528 4.84977 9.23674C4.86357 9.30747 4.87737 9.37821 4.88772 9.43686ZM29.4733 25.4241C29.2921 25.9244 29.0834 26.4213 29.1766 26.9785C29.5664 26.6248 29.7079 25.6622 29.4733 25.4241ZM22.8055 26.9768C22.8952 26.4213 22.6899 25.9244 22.5053 25.4241C22.2672 25.6898 22.4276 26.6507 22.8055 26.9768ZM16.0876 12.3334C16.2256 12.3507 16.2739 12.3127 16.2756 12.1799C16.2791 11.9487 16.3067 11.7176 16.3205 11.4847C16.3429 11.1034 16.3654 10.7221 16.3792 10.3409C16.3809 10.2943 16.3326 10.246 16.3067 10.1977C16.2843 10.2442 16.2463 10.2891 16.2429 10.3374C16.2015 10.786 16.167 11.2328 16.1307 11.6813C16.1135 11.897 16.1014 12.1126 16.0876 12.3317V12.3334ZM27.9154 32.2127C28.0276 32.2023 28.314 31.9211 28.471 31.6727C28.2743 31.4985 28.0742 31.3208 27.8499 31.1224C27.8723 31.5105 27.893 31.8556 27.9154 32.2127ZM23.5059 31.6779C23.7698 32.0333 23.9596 32.211 24.0666 32.2041C24.0873 31.8573 24.1062 31.5088 24.1287 31.1379C24.0855 31.1672 24.0666 31.1793 24.0493 31.1931C23.8699 31.3536 23.6905 31.514 23.5059 31.6779ZM19.7191 14.521C19.6846 14.6935 19.6691 14.8712 19.8123 15.004C19.9986 15.1765 20.2332 15.2645 20.4765 15.3508C20.3902 14.916 20.0745 14.4951 19.7191 14.5227V14.521ZM31.5021 15.3698C31.6988 15.2697 31.8851 15.1921 32.0542 15.0886C32.2784 14.9505 32.325 14.7832 32.2508 14.5192C31.8885 14.4985 31.5746 14.9471 31.5021 15.3698ZM38.2424 11.9884C37.9508 11.8228 37.6834 11.671 37.3884 11.5019C37.3643 11.7572 37.3418 11.9884 37.3177 12.2437C37.6334 12.1557 37.9232 12.0764 38.2424 11.9884ZM41.4719 11.3915C41.0976 11.3725 40.7094 11.8073 40.756 12.1972C41.0562 12.2058 41.2252 12.0954 41.3305 11.8124C41.3822 11.6727 41.4254 11.5312 41.4719 11.3898V11.3915ZM23.3472 12.154V10.4409C23.0142 10.7238 23.0315 11.7969 23.3472 12.154ZM40.4472 7.73756C40.3816 7.71858 40.335 7.69098 40.2971 7.69788C40.0745 7.73756 39.852 7.78241 39.6312 7.83244C39.4759 7.86695 39.3224 7.91525 39.1688 7.95666C39.2326 8.19301 39.626 8.24304 39.8037 8.12918C40.0021 8.00151 40.2074 7.8842 40.4489 7.73928L40.4472 7.73756ZM41.4909 12.173C41.5392 12.1661 41.5582 12.1661 41.5754 12.1592C41.9688 12.0091 42.1913 11.6796 42.1689 11.2587C42.1655 11.1896 42.1154 11.1224 42.0878 11.0534C42.0706 11.0551 42.0533 11.0585 42.0343 11.0603C41.8566 11.4225 41.679 11.7848 41.4909 12.1713V12.173ZM5.63645 8.08432C5.40182 8.13953 5.17065 8.18956 4.9412 8.24821C4.89117 8.26029 4.80664 8.30169 4.80836 8.3224C4.81699 8.40175 4.83424 8.49836 4.88599 8.55184C4.93085 8.5967 5.03091 8.6105 5.09992 8.60015C5.35007 8.56047 5.53811 8.40693 5.70028 8.22233C5.72098 8.19818 5.72961 8.14988 5.72098 8.12055C5.71581 8.10157 5.66578 8.0964 5.63472 8.08432H5.63645ZM15.9323 10.6962C15.7615 10.6531 15.7564 10.66 15.7443 10.8049C15.7201 11.0844 15.6908 11.3622 15.6649 11.6416C15.6425 11.8814 15.6235 12.1195 15.6028 12.3593C15.6166 12.3679 15.6304 12.3766 15.6442 12.3852C15.6701 12.3507 15.7098 12.3214 15.7167 12.2834C15.7564 12.085 15.796 11.8866 15.8219 11.6848C15.8651 11.3553 15.8961 11.024 15.9323 10.6962ZM31.3917 11.2794C31.421 11.1758 30.272 9.36613 29.9011 8.89861C29.7873 8.94001 29.8546 8.99867 29.8891 9.0487C30.3307 9.70772 30.7724 10.3667 31.2157 11.024C31.2709 11.1051 31.3279 11.1862 31.3917 11.2794ZM33.5723 8.84513C33.5758 8.8296 33.5792 8.8158 33.5827 8.80027C33.3446 8.63293 33.1082 8.46386 32.8288 8.26719C32.8288 8.41038 32.8288 8.50872 32.8288 8.60878C32.8288 8.78647 32.9168 8.89515 33.091 8.89343C33.2514 8.89343 33.4119 8.86238 33.5723 8.84513ZM40.4903 11.4881C40.2609 11.7538 40.0556 11.9884 39.8365 12.2403C40.3385 12.3421 40.5973 12.0471 40.4903 11.4881ZM13.5723 8.26029C13.5861 8.26374 13.6016 8.26546 13.6154 8.26892C13.8138 8.05672 14.0122 7.8428 14.2382 7.59955C14.0243 7.61162 13.85 7.61507 13.6792 7.63577C13.6396 7.64095 13.5775 7.69961 13.5757 7.73583C13.5654 7.91008 13.5706 8.08605 13.5706 8.26029H13.5723ZM35.0784 10.0631C35.0939 10.0648 35.1095 10.0683 35.125 10.07C35.1353 10.0217 35.1526 9.97339 35.1526 9.92509C35.156 9.15911 35.156 8.39313 35.1578 7.62715C35.1578 7.59782 35.1612 7.56677 35.1526 7.54089C35.1474 7.52364 35.1215 7.49948 35.1077 7.49948C35.0922 7.49948 35.0681 7.52536 35.0646 7.54434C35.0577 7.57712 35.0612 7.61162 35.0612 7.64612C35.0646 8.40693 35.0663 9.16773 35.0698 9.92854C35.0698 9.97339 35.075 10.0182 35.0784 10.0631ZM16.7898 9.7612C16.7656 9.8095 16.7449 9.83365 16.7414 9.86126C16.7173 10.0976 16.6897 10.3322 16.6759 10.5686C16.65 11.024 16.6293 11.4778 16.6103 11.9332C16.6069 12.0039 16.6207 12.0747 16.6276 12.1437C16.6535 12.0712 16.6966 11.9988 16.7018 11.9246C16.7345 11.4122 16.7639 10.8998 16.7863 10.3857C16.7949 10.1873 16.7863 9.98892 16.7863 9.7612H16.7898ZM34.6557 7.64785C34.4625 8.22751 34.4332 8.8089 34.6557 9.38856V7.64785ZM21.4236 11.4622C21.4012 11.4588 21.3805 11.457 21.358 11.4536C21.201 11.6347 21.0803 11.8314 21.0993 12.0867C21.1096 12.2368 21.1907 12.3352 21.3149 12.33C21.3529 12.33 21.4184 12.2731 21.4184 12.2403C21.427 11.9815 21.4236 11.721 21.4236 11.4622ZM19.8157 13.0735C19.9537 13.1546 20.0486 13.2236 20.1539 13.265C20.2004 13.284 20.2936 13.265 20.3229 13.2288C20.4402 13.0856 20.5386 12.9269 20.6455 12.7751C20.6335 12.7578 20.6214 12.7423 20.6093 12.7251C20.3557 12.8372 20.1021 12.9476 19.8157 13.0735ZM31.3762 12.7251C31.3675 12.7389 31.3589 12.7527 31.3486 12.7682C31.4003 12.8596 31.4503 12.9528 31.5021 13.0442C31.6677 13.3271 31.7143 13.3392 31.9938 13.1753C32.0386 13.1494 32.0818 13.1218 32.1594 13.0735C31.8782 12.9493 31.6263 12.8372 31.3744 12.7268L31.3762 12.7251ZM23.7543 8.92103C23.6681 8.88135 22.2862 9.61283 22.0947 9.81123C22.143 9.82158 22.1982 9.82675 22.2362 9.80433C22.7175 9.53175 23.1954 9.25572 23.6732 8.98141C23.7008 8.96589 23.725 8.94346 23.7543 8.92103ZM19.481 7.97046C19.4621 7.97908 19.4431 7.98771 19.4241 7.99634C19.4448 8.03774 19.4552 8.09467 19.4897 8.12055C19.7709 8.33275 20.0555 8.54149 20.3402 8.74679C20.404 8.79337 20.4765 8.83132 20.5437 8.87273C20.5558 8.86583 20.5696 8.85893 20.5817 8.8503C20.5662 8.80372 20.5644 8.73644 20.5317 8.71401C20.1849 8.46214 19.8312 8.21716 19.481 7.97046ZM23.7647 9.79397C24.2011 9.52657 24.6238 9.26607 25.0465 9.00729C25.0344 8.98486 25.0206 8.96416 25.0085 8.94174C24.5651 9.18326 24.12 9.42651 23.6715 9.67149C23.706 9.71634 23.7319 9.75084 23.7647 9.79397ZM30.3031 8.80717C30.2876 8.81752 30.2721 8.82787 30.2565 8.83822C30.6188 9.41443 30.9828 9.99237 31.3451 10.5686C31.3624 10.5634 31.3813 10.5582 31.3986 10.5531C31.3882 10.5099 31.39 10.4582 31.3675 10.4237C31.0363 9.91129 30.7033 9.40063 30.3687 8.88998C30.3497 8.86065 30.3255 8.83477 30.3031 8.80717ZM21.4995 25.4862C21.5185 25.4724 21.5306 25.469 21.534 25.4621C21.7048 24.8893 21.8773 24.3165 22.0447 23.7438C22.0516 23.7196 22.0309 23.6886 22.0153 23.6316C21.8204 24.0698 21.4512 25.4086 21.4995 25.4879V25.4862ZM30.4825 25.4914C30.536 25.4069 30.0926 23.8456 29.9736 23.6661C29.927 23.7421 30.348 25.2671 30.4825 25.4914ZM33.5533 7.37355C33.5758 7.68753 33.5947 7.98599 33.6224 8.28444C33.6258 8.31549 33.6741 8.3431 33.719 8.38968V7.37355H33.5533ZM22.0895 10.6203C22.0792 10.6014 22.0705 10.5841 22.0602 10.5651C21.5961 10.8187 21.132 11.0723 20.668 11.3259C20.6749 11.3466 20.68 11.3656 20.6869 11.3863C20.7301 11.376 20.7766 11.3725 20.8129 11.3518C21.2097 11.131 21.6065 10.9067 22.0015 10.6824C22.0326 10.6652 22.0602 10.641 22.0912 10.6203H22.0895ZM22.2965 27.496C22.4501 27.4702 22.4604 27.4564 22.438 27.3304C22.4035 27.1407 22.3586 26.9526 22.3328 26.7611C22.3172 26.6524 22.2707 26.6473 22.174 26.6869C22.2154 26.9578 22.2551 27.2269 22.2965 27.4978V27.496ZM29.6924 27.496C29.7338 27.2235 29.7735 26.9526 29.8149 26.6818C29.7148 26.6455 29.67 26.6559 29.6562 26.7628C29.6303 26.9543 29.5872 27.1424 29.5509 27.3322C29.5319 27.427 29.5475 27.496 29.6941 27.496H29.6924ZM20.6783 12.3955C20.7404 12.1609 20.7991 11.9401 20.8629 11.6934C20.5248 11.8176 20.4333 12.1833 20.6783 12.3955ZM34.1416 7.3977V8.8434C34.1761 8.80027 34.1865 8.79337 34.1865 8.78647C34.202 8.3569 34.2193 7.9256 34.2296 7.49431C34.2296 7.46671 34.1813 7.4391 34.1416 7.3977ZM13.1669 8.39313C13.1789 8.19991 13.1893 8.02567 13.2031 7.81174C13.0496 7.97736 12.9271 8.1102 12.7977 8.24994C12.9046 8.29134 13.0271 8.33792 13.1669 8.3914V8.39313ZM26.7786 9.44376C26.5595 9.3299 26.3783 9.23329 26.1903 9.13496C26.1575 9.31955 26.2041 9.43169 26.3231 9.44031C26.4594 9.45239 26.5957 9.44376 26.7768 9.44376H26.7786Z" fill="#4C2E13"/>
<path d="M70.9323 5.99998C61.6651 5.99998 61.6651 19.2403 70.9323 19.2403C80.1995 19.2403 80.203 5.99998 70.9323 5.99998ZM70.9323 18.8365C63.8177 18.8365 63.7971 6.4038 70.9323 6.4038C78.0675 6.4038 78.0675 18.8365 70.9323 18.8365ZM72.024 12.4713C71.7981 12.3686 71.4388 12.4131 71.2951 12.2522C71.1377 12.1119 71.1753 11.7663 71.0932 11.5439C71.035 11.3625 70.8742 11.3625 70.7955 11.5439C70.6928 11.7697 70.7339 12.129 70.5696 12.2728C70.4293 12.4336 70.0836 12.3926 69.8646 12.4747C69.6833 12.5329 69.6833 12.6937 69.8646 12.7793C70.0836 12.8785 70.4464 12.8374 70.5901 12.9983C70.751 13.1386 70.7133 13.4842 70.7955 13.7032C70.8536 13.8846 71.0145 13.8846 71.0932 13.7032C71.1958 13.4842 71.1548 13.1215 71.319 12.9777C71.4559 12.8169 71.7981 12.8545 72.024 12.7758C72.2054 12.7142 72.2054 12.55 72.024 12.4713Z" fill="#4C2E13"/>
<path d="M89.8318 16.2767C89.5273 17.5874 89.0276 18.395 86.9298 18.395H83.1415C82.7172 18.3539 82.3921 18.152 82.3921 17.5497V7.55364C82.3921 6.48593 82.9773 6.6673 83.6651 6.5441C83.867 6.50304 83.8465 6.20189 83.6446 6.20189H79.6714C79.4524 6.20189 79.4524 6.50646 79.6509 6.5441C80.3148 6.6673 80.9034 6.48593 80.9034 7.55364V17.5121C80.9034 18.5593 80.3182 18.3984 79.6509 18.5216C79.449 18.5422 79.449 18.8399 79.6714 18.8399H89.9311C89.9893 18.8399 90.0714 18.8193 90.0714 18.7406L90.1706 16.3007C90.1706 16.1193 89.8729 16.0987 89.8284 16.2801L89.8318 16.2767Z" fill="#4C2E13"/>
<path d="M96.9671 6.20189H91.567C91.3479 6.20189 91.3479 6.50646 91.5464 6.5441C92.2103 6.6673 92.7989 6.48593 92.7989 7.55364V17.5121C92.7989 18.5593 92.2137 18.3984 91.5464 18.5216C91.3445 18.5422 91.3445 18.8399 91.567 18.8399H96.9671C106.823 18.8399 106.84 6.20531 96.9671 6.20531V6.20189ZM96.6249 18.4155H95.215C94.7119 18.4155 94.2841 18.2547 94.2841 17.5497V7.51257C94.2841 6.8076 94.688 6.6673 95.1944 6.6673H96.6249C104.889 6.6673 105.009 18.4155 96.6249 18.4155Z" fill="#4C2E13"/>
<path d="M132.321 6.28061H128.977C128.772 6.28061 128.772 6.58518 128.953 6.62282C129.641 6.72549 130.367 6.62282 130.024 7.51257L126.174 16.6395C126.034 16.944 125.89 16.944 125.774 16.6395L122.064 6.28061C121.459 6.18137 121.236 6.28061 121.038 6.62282C120.997 6.70496 120.935 6.78366 120.915 6.84868C119.744 9.62746 117.992 13.8401 116.805 16.6395C116.746 16.7798 116.664 16.8653 116.603 16.8653C116.521 16.8653 116.442 16.7832 116.377 16.6395L113.133 7.57076C112.77 6.68442 113.454 6.72549 114.142 6.62282C114.324 6.58176 114.324 6.28061 114.122 6.28061H109.769C109.567 6.28061 109.55 6.58518 109.748 6.62282C110.433 6.72549 111.059 6.6673 111.504 7.67342L115.33 18.2718C115.593 18.8365 115.795 19.1787 116.377 18.9973L120.952 7.99852C122.225 11.4241 123.471 14.8497 124.723 18.2752C124.984 18.8399 125.185 19.1821 125.771 19.0007L130.507 7.65973C130.928 6.62967 131.653 6.72891 132.338 6.62966C132.519 6.5886 132.519 6.28745 132.317 6.28745L132.321 6.28061Z" fill="#4C2E13"/>
<path d="M140.24 5.99998C130.973 5.99998 130.973 19.2403 140.24 19.2403C149.507 19.2403 149.511 5.99998 140.24 5.99998ZM140.24 18.8365C133.125 18.8365 133.105 6.4038 140.24 6.4038C147.375 6.4038 147.375 18.8365 140.24 18.8365ZM141.332 12.4713C141.106 12.3686 140.746 12.4131 140.603 12.2522C140.445 12.1119 140.483 11.7663 140.401 11.5439C140.343 11.3625 140.182 11.3625 140.103 11.5439C140 11.7697 140.041 12.129 139.877 12.2728C139.737 12.4336 139.391 12.3926 139.172 12.4747C138.991 12.5329 138.991 12.6937 139.172 12.7793C139.391 12.8785 139.754 12.8374 139.898 12.9983C140.059 13.1386 140.021 13.4842 140.103 13.7032C140.161 13.8846 140.322 13.8846 140.401 13.7032C140.503 13.4842 140.462 13.1215 140.627 12.9777C140.764 12.8169 141.106 12.8545 141.332 12.7758C141.513 12.7142 141.513 12.55 141.332 12.4713Z" fill="#4C2E13"/>
<path d="M160.576 14.4835C160.214 14.4835 159.929 14.723 159.929 15.1063C159.929 15.5512 160.313 15.8147 160.672 16.2356C161.278 16.8995 160.734 18.0699 159.645 18.0699C157.77 18.0699 157.267 15.2672 155.173 14.7436C157.691 14.5246 160.292 13.3131 160.292 10.4899C160.292 7.66658 157.712 6.27719 154.83 6.27719H148.985C148.766 6.27719 148.766 6.58176 148.965 6.6194C149.629 6.72207 150.238 6.56123 150.238 7.62894V17.6045C150.238 18.6722 149.632 18.5148 148.965 18.614C148.763 18.6551 148.763 18.9562 148.985 18.9562H152.979C153.181 18.9562 153.181 18.6517 153 18.614C152.315 18.5148 151.733 18.6722 151.733 17.6045V7.58787C151.733 6.8829 152.154 6.74259 152.657 6.74259L152.599 6.72206H153.263C156.545 6.72206 158.581 7.93008 158.581 10.5104C158.581 13.0907 156.244 14.4424 153.263 14.4424C152.941 14.4424 153.082 14.4185 152.777 14.3808C152.435 14.3398 152.435 14.8052 152.798 14.7846C155.395 14.8839 156.281 19.1171 158.982 19.1171C160.737 19.1171 161.404 17.7072 161.422 16.2938C161.442 15.6915 161.463 14.4835 160.576 14.4835Z" fill="#4C2E13"/>
<path d="M172.579 16.2767C172.275 17.5874 171.775 18.395 169.677 18.395H165.889C165.465 18.3539 165.14 18.152 165.14 17.5497V7.55364C165.14 6.48593 165.725 6.6673 166.413 6.5441C166.615 6.50304 166.594 6.20189 166.392 6.20189H162.419C162.2 6.20189 162.2 6.50646 162.398 6.5441C163.062 6.6673 163.651 6.48593 163.651 7.55364V17.5121C163.651 18.5593 163.066 18.3984 162.398 18.5216C162.197 18.5422 162.197 18.8399 162.419 18.8399H172.679C172.737 18.8399 172.819 18.8193 172.819 18.7406L172.918 16.3007C172.918 16.1193 172.62 16.0987 172.576 16.2801L172.579 16.2767Z" fill="#4C2E13"/>
<path d="M179.713 6.20189H174.313C174.094 6.20189 174.094 6.50646 174.292 6.5441C174.956 6.6673 175.545 6.48593 175.545 7.55364V17.5121C175.545 18.5593 174.959 18.3984 174.292 18.5216C174.09 18.5422 174.09 18.8399 174.313 18.8399H179.713C189.569 18.8399 189.586 6.20531 179.713 6.20531V6.20189ZM179.371 18.4155H177.961C177.458 18.4155 177.03 18.2547 177.03 17.5497V7.51257C177.03 6.8076 177.434 6.6673 177.94 6.6673H179.371C187.635 6.6673 187.755 18.4155 179.371 18.4155Z" fill="#4C2E13"/>
<path d="M71.7081 33.9658C70.4555 33.9658 69.4084 33.6304 68.5597 32.9563C67.7076 32.2752 67.2832 31.3034 67.2832 30.044C67.2832 29.3014 67.4167 28.6375 67.6939 28.0592C67.9779 27.474 68.3475 27.0154 68.8129 26.6903C69.7335 26.0093 70.7738 25.6671 71.9305 25.6671C72.6012 25.6671 73.2994 25.7903 74.0249 26.0298L73.8982 26.8648C73.5218 26.7006 73.2241 26.5774 73.0153 26.5021C72.4164 26.2831 71.8073 26.1701 71.1879 26.1701C70.346 26.3584 69.6958 26.7793 69.2338 27.4295C68.7821 28.0729 68.5562 28.8736 68.5562 29.8387C68.5562 31.0262 68.8642 31.9399 69.4871 32.5798C70.1065 33.2232 70.9244 33.5414 71.9442 33.5414C72.964 33.5414 73.7169 33.3293 74.2131 32.8947V33.5551C73.5218 33.8255 72.6868 33.9658 71.7081 33.9658Z" fill="#4C2E13"/>
<path d="M80.3354 25.6671C81.3825 25.6671 82.2484 26.0127 82.9328 26.7074C83.6241 27.3987 83.9731 28.3569 83.9731 29.5752C83.9731 30.376 83.8328 31.0707 83.5488 31.6695C83.2716 32.2616 82.9191 32.7099 82.4776 33.0247C81.6153 33.6544 80.6673 33.9692 79.627 33.9692C78.5866 33.9692 77.7243 33.6236 77.0432 32.9289C76.3588 32.2273 76.02 31.2691 76.02 30.0474C76.02 29.4109 76.1056 28.8326 76.2869 28.3158C76.4752 27.8025 76.7147 27.385 77.0124 27.0702C77.3033 26.7485 77.6455 26.4713 78.0357 26.2523C78.7372 25.8656 79.5038 25.6705 80.3354 25.6705V25.6671ZM77.9091 32.4395C78.1178 32.7988 78.3984 33.076 78.7441 33.2745C79.1 33.4764 79.5072 33.5722 79.9726 33.5722C80.438 33.5722 80.859 33.4593 81.2183 33.2266C81.5845 32.9871 81.8685 32.6756 82.0704 32.2958C82.4811 31.5395 82.683 30.7284 82.683 29.8558C82.683 28.7847 82.4708 27.9257 82.0533 27.2721C81.5673 26.5397 80.7802 26.1701 79.692 26.1701C78.9049 26.4473 78.3094 26.9196 77.9125 27.5869C77.5121 28.2474 77.3136 29.0037 77.3136 29.8558C77.3136 30.8859 77.5121 31.7448 77.9125 32.4395H77.9091Z" fill="#4C2E13"/>
<path d="M87.6753 29.4007H90.2282V29.8558H87.6753V33.8255H86.4946V25.8245H91.2206V26.6287L88.986 26.2523C88.5856 26.2523 88.151 26.3241 87.6787 26.4576V29.4041L87.6753 29.4007Z" fill="#4C2E13"/>
<path d="M94.5195 29.4007H97.0724V29.8558H94.5195V33.8255H93.3389V25.8245H98.0649V26.6287L95.8302 26.2523C95.4298 26.2523 94.9952 26.3241 94.5229 26.4576V29.4041L94.5195 29.4007Z" fill="#4C2E13"/>
<path d="M100.185 33.8255V25.8245H105.034L104.908 26.6287L102.673 26.2523C102.273 26.2523 101.838 26.3241 101.366 26.4576V29.4041H104.042V29.8592H101.366V33.3875L105.113 33.0247L104.986 33.8289H100.182L100.185 33.8255Z" fill="#4C2E13"/>
<path d="M108.011 33.8255V25.8245H112.86L112.733 26.6287L110.499 26.2523C110.098 26.2523 109.664 26.3241 109.191 26.4576V29.4041H111.868V29.8592H109.191V33.3875L112.939 33.0247L112.812 33.8289H108.007L108.011 33.8255Z" fill="#4C2E13"/>
<path d="M121.068 29.9995V33.8255H119.888V25.8245H122.502C123.32 25.8245 123.987 26.0093 124.501 26.3755C125.024 26.7348 125.288 27.2105 125.288 27.8093C125.288 28.4082 125.076 28.8634 124.658 29.2124C124.248 29.5512 123.686 29.7805 122.974 29.9037L126.219 33.8255L124.816 34L122.013 29.9995H121.068ZM121.068 29.6368H121.855C123.303 29.6368 124.029 29.0653 124.029 27.9189C124.029 27.7306 123.981 27.5185 123.888 27.2721C123.7 26.7588 123.296 26.42 122.69 26.2625C122.143 26.2625 121.602 26.3344 121.068 26.4679V29.6334V29.6368Z" fill="#4C2E13"/>
<path d="M132.269 25.6671C133.317 25.6671 134.182 26.0127 134.867 26.7074C135.558 27.3987 135.907 28.3569 135.907 29.5752C135.907 30.376 135.767 31.0707 135.483 31.6695C135.206 32.2616 134.853 32.7099 134.412 33.0247C133.549 33.6544 132.601 33.9692 131.561 33.9692C130.521 33.9692 129.658 33.6236 128.977 32.9289C128.293 32.2273 127.954 31.2691 127.954 30.0474C127.954 29.4109 128.04 28.8326 128.221 28.3158C128.409 27.8025 128.649 27.385 128.947 27.0702C129.237 26.7485 129.58 26.4713 129.97 26.2523C130.671 25.8656 131.438 25.6705 132.269 25.6705V25.6671ZM129.843 32.4395C130.052 32.7988 130.333 33.076 130.678 33.2745C131.034 33.4764 131.441 33.5722 131.907 33.5722C132.372 33.5722 132.793 33.4593 133.152 33.2266C133.519 32.9871 133.803 32.6756 134.004 32.2958C134.415 31.5395 134.617 30.7284 134.617 29.8558C134.617 28.7847 134.405 27.9257 133.987 27.2721C133.501 26.5397 132.714 26.1701 131.626 26.1701C130.839 26.4473 130.244 26.9196 129.847 27.5869C129.446 28.2474 129.248 29.0037 129.248 29.8558C129.248 30.8859 129.446 31.7448 129.847 32.4395H129.843Z" fill="#4C2E13"/>
<path d="M137.468 33.8255L141.058 25.6192H141.232L144.822 33.8255H143.515L142.601 31.6524H139.011L138.115 33.8255H137.468ZM139.199 31.1939H142.413L140.808 27.2721L139.203 31.1939H139.199Z" fill="#4C2E13"/>
<path d="M147.931 27.2105C147.931 27.5698 148.064 27.8983 148.341 28.2029C148.625 28.4972 148.964 28.7607 149.364 28.99C149.761 29.2227 150.158 29.4588 150.562 29.6984C150.959 29.9311 151.295 30.2185 151.572 30.5642C151.856 30.9098 151.996 31.2965 151.996 31.714C151.996 32.3745 151.75 32.9186 151.257 33.3361C150.771 33.7571 150.114 33.9658 149.289 33.9658C148.464 33.9658 147.636 33.8084 146.818 33.4935V32.9255C147.636 33.3361 148.334 33.538 148.913 33.538C149.491 33.538 149.939 33.4046 150.268 33.1274C150.59 32.8433 150.757 32.4498 150.757 31.9467C150.757 31.6114 150.62 31.3102 150.347 31.033C150.083 30.749 149.765 30.5094 149.385 30.3075C149.009 30.0988 148.629 29.8832 148.252 29.6607C147.876 29.4383 147.547 29.1645 147.277 28.8257C147.013 28.4904 146.883 28.0866 146.883 27.6143C146.883 27.142 147.092 26.7006 147.513 26.2899C147.931 25.8724 148.56 25.6602 149.402 25.6602C149.956 25.6602 150.651 25.7869 151.479 26.0367L151.37 26.8546C150.275 26.3926 149.344 26.1633 148.567 26.1633C148.146 26.3652 147.937 26.7108 147.937 27.2036L147.931 27.2105Z" fill="#4C2E13"/>
<path d="M157.556 33.8255H156.376V26.3926C156.098 26.331 155.828 26.2968 155.558 26.2968L153.919 26.6732L153.857 25.8211H160.078L160.017 26.6732L158.378 26.2968C158.1 26.2968 157.83 26.3276 157.56 26.3926V33.8255H157.556Z" fill="#4C2E13"/>
<path d="M162.317 33.8255V25.8245H167.167L167.04 26.6287L164.805 26.2523C164.405 26.2523 163.97 26.3241 163.498 26.4576V29.4041H166.174V29.8592H163.498V33.3875L167.245 33.0247L167.119 33.8289H162.314L162.317 33.8255Z" fill="#4C2E13"/>
<path d="M171.32 29.9995V33.8255H170.14V25.8245H172.754C173.572 25.8245 174.239 26.0093 174.753 26.3755C175.276 26.7348 175.54 27.2105 175.54 27.8093C175.54 28.4082 175.328 28.8634 174.91 29.2124C174.499 29.5512 173.938 29.7805 173.226 29.9037L176.471 33.8255L175.068 34L172.265 29.9995H171.32ZM171.32 29.6368H172.107C173.555 29.6368 174.28 29.0653 174.28 27.9189C174.28 27.7306 174.233 27.5185 174.14 27.2721C173.952 26.7588 173.548 26.42 172.942 26.2625C172.395 26.2625 171.854 26.3344 171.32 26.4679V29.6334V29.6368Z" fill="#4C2E13"/>
<path d="M179.754 27.2105C179.754 27.5698 179.887 27.8983 180.164 28.2029C180.448 28.4972 180.787 28.7607 181.188 28.99C181.585 29.2227 181.982 29.4588 182.385 29.6984C182.782 29.9311 183.118 30.2185 183.395 30.5642C183.679 30.9098 183.819 31.2965 183.819 31.714C183.819 32.3745 183.573 32.9186 183.08 33.3361C182.594 33.7571 181.937 33.9658 181.112 33.9658C180.288 33.9658 179.459 33.8084 178.642 33.4935V32.9255C179.459 33.3361 180.158 33.538 180.736 33.538C181.314 33.538 181.763 33.4046 182.091 33.1274C182.413 32.8433 182.581 32.4498 182.581 31.9467C182.581 31.6114 182.444 31.3102 182.17 31.033C181.906 30.749 181.588 30.5094 181.208 30.3075C180.832 30.0988 180.452 29.8832 180.075 29.6607C179.699 29.4383 179.371 29.1645 179.1 28.8257C178.837 28.4904 178.707 28.0866 178.707 27.6143C178.707 27.142 178.915 26.7006 179.336 26.2899C179.754 25.8724 180.383 25.6602 181.225 25.6602C181.78 25.6602 182.474 25.7869 183.303 26.0367L183.193 26.8546C182.098 26.3926 181.167 26.1633 180.39 26.1633C179.969 26.3652 179.761 26.7108 179.761 27.2036L179.754 27.2105Z" fill="#4C2E13"/>
</svg>
