<?xml version="1.0" encoding="UTF-8"?> <svg xmlns="http://www.w3.org/2000/svg" width="310.017" height="93.192" viewBox="0 0 310.017 93.192"><g data-name="ThreeWide Logo"><path data-name="Path 2" d="M125.062 73.41a6.547 6.547 0 0 0-.587-2.22 23.285 23.285 0 0 0-2.22-2.669.733.733 0 0 0-.265-.147 7.681 7.681 0 0 0-5.3-.7 10.138 10.138 0 0 0-2.155.645 7.1 7.1 0 0 0-2.657 2.744 8.667 8.667 0 0 0-.887 3.339 6.4 6.4 0 0 0 1.67 5.221 6.618 6.618 0 0 0 3.283 1.9c.189.056.332.261.5.4l3.615-.019a2.076 2.076 0 0 1 .425-.313c.576-.226 1.163-.429 1.747-.634a3.849 3.849 0 0 0 2.456-2.309 17.562 17.562 0 0 0 .6-1.971 2.831 2.831 0 0 0 .079-.951 23.94 23.94 0 0 0-.3-2.311" transform="translate(118.967 9.428)" style="fill:#090a0d"></path><path data-name="Path 3" d="M115.088 78.429c.027-.605-.006-.686-.628-.688-.808 0-1.617.008-2.425.012-.69 0-.779-.081-.79-.8-.01-.879-.01-1.755-.015-2.634 0-.466-.029-.935 0-1.4.021-.309.129-.613.522-.642.738-.054 1.44-.249 2.18-.3.172-.01.379.112.551.1l.427-.021c.365-.015.528-.207.522-.487-.025-1.043-.089-2.083-.147-3.121-.025-.454-.284-.582-.715-.539a11.191 11.191 0 0 1-1.237.012c-.62-.012-3.1-.108-3.656-.079q-3.193.162-6.39.344c-.437.025-.549.35-.558.715-.031 1.7-.066 3.4-.075 5.1 0 .808 0 1.617.01 2.423 0 .253-.172.506-.17.756 0 .267.178.535.178.8v.926a17.556 17.556 0 0 1-.184 1.971.613.613 0 0 0 .7.709c.846-.075 1.693-.164 2.541-.184 1.358-.035 2.719-.023 4.079-.029 1.428-.008 2.856-.01 4.284-.029a3.759 3.759 0 0 0 .9-.116.468.468 0 0 0 .286-.323 10.566 10.566 0 0 0-.075-1.169 10.142 10.142 0 0 1-.116-1.316" transform="translate(109.917 9.845)" style="fill:#090a0d"></path><path data-name="Path 4" d="M65.646 81.9a10.527 10.527 0 0 0-.073-1.169 10.143 10.143 0 0 1-.118-1.316c.029-.605-.006-.688-.626-.688-.808 0-1.619.008-2.427.012-.688 0-.779-.083-.79-.8 0-.39 0-.779-.006-1.167l4.1-.487-.01-2.066-4.112.023c0-.448-.006-.9.01-1.142.021-.307.129-.613.522-.642 1.053-.077 2.106-.17 3.159-.213.365-.014.528-.209.522-.489-.023-1.04-.085-1.275-.143-2.315-.025-.452-.282-.58-.713-.539a10.744 10.744 0 0 1-1.239.012c-.62-.01-1.27.143-1.811-.327a.233.233 0 0 0-.22-.017c-.481.483-1.072.238-1.623.265q-3.2.162-6.39.344c-.439.025-.551.352-.558.715-.033 1.7-.066 3.4-.077 5.1-.008 1.635.033 3.27.014 4.906a17.549 17.549 0 0 1-.184 1.971.611.611 0 0 0 .7.707c.846-.073 1.693-.162 2.541-.184 1.36-.035 2.719-.021 4.079-.029 1.428-.008 2.856-.01 4.286-.027a3.79 3.79 0 0 0 .9-.118.454.454 0 0 0 .284-.321" transform="translate(56.684 10.604)" style="fill:#090a0d"></path><path data-name="Path 5" d="M92.626 75.918c-.027-2.176 0-4.354-.06-6.528-.021-.709-.153-.968-.964-.8a9.831 9.831 0 0 1-2.139.149c-1.107-.019-2.211-.141-3.318-.168-1.19-.027-2.381 0-3.573.012-1.032 0-2.066.029-3.1.006a.626.626 0 0 0-.723.661c-.054.837-.11 1.675-.089 2.51.05 1.83.164 3.656.222 5.484.035 1.067.021 2.135.023 3.2a.569.569 0 0 0 .616.649c1.059.033 2.12.066 3.179.085.6.008.74-.141.748-.752a29.49 29.49 0 0 0-.006-1.395c-.035-1.179-.087-2.361-.116-3.542-.006-.3.052-.613.093-1.071a10.708 10.708 0 0 1 .918.6c1.644 1.372 3.254 2.781 4.92 4.122.891.717 1.863 1.333 2.819 1.967a.786.786 0 0 0 .611.066c.1-.033.16-.321.155-.493-.012-.545-.075-1.09-.1-1.635-.048-1.042-.106-2.087-.118-3.13" transform="translate(84.363 10.588)" style="fill:#090a0d"></path><path data-name="Path 6" d="M75.589 81.875a1.54 1.54 0 0 0 .276-.371c.5-1.492.993-2.991 1.484-4.487.5-1.513 1-3.026 1.48-4.543a.969.969 0 0 0-.073-.526.768.768 0 0 0-.153-.253 8.5 8.5 0 0 1 .595-.686 1.6 1.6 0 0 0 .408-1.3c0-.157.193-.307.272-.47s.232-.441.17-.516a.8.8 0 0 0-.564-.253c-1.08.015-2.16.083-3.237.1-1.239.025-2.479.017-3.718.025-1.378.006-2.767-.073-4.135.052-.9.081-1.782.068-2.674.087-.415.008-.831.008-1.246-.006-.321-.012-.642-.085-.962-.079-.543.015-1.086.077-1.631.1-.5.025-.58.23-.375.686.477 1.069.906 2.162 1.355 3.244.006.017 0 .035 0 .052.33 1.111.613 2.236 1 3.326.638 1.787 1.337 3.552 2.029 5.32a4.723 4.723 0 0 0 .479.773c.141-.245.3-.481.419-.738.464-1.028.933-2.054 1.366-3.094.211-.51.284-1.084.537-1.569.626-1.192 1.316-2.352 1.994-3.517.072-.124.253-.29.35-.272a.755.755 0 0 1 .4.321 6.121 6.121 0 0 1 .352.663c.373.719.788 1.418 1.111 2.155.786 1.8 1.525 3.619 2.3 5.424.06.143.257.228.39.34" transform="translate(65.855 10.517)" style="fill:#090a0d"></path><path data-name="Path 7" d="M78.641 76.246c-.046-.79-.249-1.571-.29-2.361-.081-1.486-.1-2.978-.139-4.466 0-.189.006-.379-.006-.568a.553.553 0 0 0-.678-.549 5.029 5.029 0 0 1-.7.089c-1.032.014-2.064 0-3.1.033-.164.006-.441.17-.462.294a9.617 9.617 0 0 0-.112 1.525c-.008 1.291.023 2.584.012 3.876-.01 1.438-.068 2.877-.068 4.313 0 .837.077 1.673.106 2.508.019.572.116.688.688.69.7 0 1.409-.006 2.114-.01.688 0 1.376 0 2.064-.012.58-.006.74-.147.707-.732-.046-.864-.172-1.724-.2-2.589-.023-.68.1-1.364.062-2.041" transform="translate(78.406 10.323)" style="fill:#090a0d"></path><path data-name="Path 8" d="m46.727 77.294-1.438-1.857 1.221-2.773-.45-3.476a.813.813 0 0 0-.81-.707l-10.991.06.073 13.664 4.92.249 3.517-.019 3.266-1.208A2.089 2.089 0 0 0 47 78.952z" transform="translate(36.744 10.526)" style="fill:#090a0d"></path><path data-name="Path 9" d="m54.785 77.243 1.306-3.714-.547-3.258-2.417-1.834-8.317.6a.757.757 0 0 0-.7.75l-.12 12.454 3.94.139a.409.409 0 0 0 .425-.392l.158-3.31 3.343 3.248a.215.215 0 0 0 .137.062l5.063.332a.215.215 0 0 0 .205-.315z" transform="translate(47.178 10.478)" style="fill:#090a0d"></path><path data-name="Path 10" d="m101.377 74.243-4.056.259a.35.35 0 0 0-.261.555l1.919 2.663h-2.846c-.671 0-.761-.079-.769-.775-.012-.856-.012-1.71-.017-2.566 0-.454-.027-.91 0-1.364.021-.3.124-.6.508-.624 1.026-.077 3.416-.251 4.444-.294.354-.015 1.086-.116 1.08-.39-.023-1.013-.087-2.027-.143-3.04-.025-.439-.276-.566-.7-.524a10.63 10.63 0 0 1-1.206.012c-.6-.01-3.022-.106-3.559-.077q-3.112.159-6.224.336c-.427.023-.537.342-.543.7-.033 1.656.191 1.25.182 2.906-.008 1.592-.218 2.86-.234 4.452-.008.64-.108 3.668-.189 4.307a.6.6 0 0 0 .68.69c.825-.07 1.65-.158 2.475-.18 1.324-.033 2.649-.021 3.973-.029 1.393-.006 2.783-.008 4.174-.027a3.586 3.586 0 0 0 .879-.114.441.441 0 0 0 .278-.313c0-.189 0-.375-.019-.564l.537-5.619a.35.35 0 0 0-.371-.383" transform="translate(95.205 10.095)" style="fill:#090a0d"></path><path data-name="Path 11" d="m134.757 33.691 1.119 59.1 26.976-2.17.485-14.417-17.457 1.717.508-9.254 13.824-1.252.526-9.745-14.189.806-.412-11.911 19.347.968-.162-12.091z" transform="translate(144.532 -26.788)" style="fill:#090a0d"></path><path data-name="Path 12" d="M.145 32.146c-.327.968 0 14.883 0 14.883l12.887 3.936-5.243 48.056H18.9L25.285 50.8l13.407.184V35.195z" transform="translate(0 -28.446)" style="fill:#090a0d"></path><path data-name="Path 13" d="M16.784 54.1c.98-.073 9.146 1.718 9.146 1.718l-.8 10.566 6.684-.247 2.616-29.969 11.107-1.285-5.88 56.794-8.5.98 1.225-16.7-7.579.688-1.524 20.447-10.8.321z" transform="translate(13.382 -25.51)" style="fill:#090a0d"></path><path data-name="Path 14" d="m47.867 36.046-1.445 55.81 26.984-1.685-.223-8.771-18.068.713 1.424-10.982h13.728l1.445-11.235H56.538L58.344 47.3l16.147.193-.323-9.739z" transform="translate(49.79 -24.262)" style="fill:#090a0d"></path><path data-name="Path 15" d="m80.227 33.751 1.927 62.456 45.113-2.647 3.563-62.34-10.128-.86-4.083 49.652h-7.024l2.288-40.5-12.742 1.35-2.031 39.15-5.155 2.038-.947-48.3z" transform="translate(86.046 -30.361)" style="fill:#090a0d"></path><path data-name="Path 16" d="M109.041 32.255c-.327 1.314-3.411 62.955-3.411 62.955l12.439-1.26 2.23-63.382z" transform="translate(113.293 -30.138)" style="fill:#090a0d"></path><path data-name="Path 17" d="M66.367 35.569c-.232 1.156-4.738 56.464-4.738 56.464h28.665l-.709-12.16-18.276.133 1.722-7.739 12.837-.951.257-8.96-13.151-1.873.85-8.568 20.044-.249V36.585z" transform="translate(66.1 -24.774)" style="fill:#090a0d"></path><path data-name="Path 18" d="M126.387 30.739c-1.762 0-9.689 1.633-9.689 1.633l-1.811 63.753 31.832-4.937 2.348-4.307 1.107-45.156s-22.025-10.987-23.787-10.987m13.36 31.731s-2.066 15.229-2.361 16.209-2.937 2.613-2.937 2.613l-8.736 1.749 1.921-30.093v-8.028s9.54 4.33 10.715 4.33z" transform="translate(123.221 -29.955)" style="fill:#090a0d"></path><path data-name="Path 19" d="m58.027 64.382 1.834-20.029s-3.185-5.179-4.491-5.329-18.947-4.056-18.947-4.056l-7.27 59.223 9.206-.348 2.419-25.635 7.254 24.667 12.415.162-11.486-24.611zm-16.058-3.844 2.651-12.924 6.8.162-.968 9.27z" transform="translate(31.267 -25.418)" style="fill:#090a0d"></path></g></svg> 